<?xml version="1.0" standalone="no"?>
<!DOCTYPE svg PUBLIC "-//W3C//DTD SVG 20010904//EN"
 "http://www.w3.org/TR/2001/REC-SVG-20010904/DTD/svg10.dtd">
<svg version="1.0" xmlns="http://www.w3.org/2000/svg"
 width="2000.000000pt" height="2000.000000pt" viewBox="0 0 2000.000000 2000.000000"
 preserveAspectRatio="xMidYMid meet">
<metadata>
Created by potrace 1.11, written by Peter Selinger 2001-2013
</metadata>
<g transform="translate(0.000000,2000.000000) scale(0.100000,-0.100000)"
fill="#000000" stroke="none">
<path d="M6570 19535 c-145 -32 -243 -66 -398 -141 -532 -254 -1007 -772
-1455 -1584 -46 -85 -403 -731 -791 -1434 -389 -704 -705 -1284 -702 -1290 4
-12 4246 -2370 4251 -2364 12 12 2684 4737 2741 4848 349 673 890 1196 1505
1458 140 60 237 94 398 138 68 19 126 36 129 39 3 2 0 30 -7 61 -6 32 -11 94
-11 140 l0 82 -262 6 c-145 3 -704 11 -1243 16 -539 6 -1331 15 -1760 20 -429
5 -1066 12 -1415 15 -349 3 -689 7 -755 9 -100 4 -138 1 -225 -19z"/>
<path d="M12870 19123 c-492 -37 -1078 -261 -1444 -551 -104 -82 -314 -291
-421 -417 -259 -307 -496 -662 -886 -1328 l-127 -218 38 -67 c21 -37 361 -638
755 -1337 663 -1175 715 -1270 699 -1282 -10 -8 -335 -210 -721 -450 -387
-240 -701 -439 -698 -441 5 -6 508 -14 3338 -53 1637 -23 1649 -23 1660 -4 49
85 2284 4181 2283 4183 -2 1 -380 -157 -841 -352 l-839 -354 -292 441 c-161
243 -478 723 -705 1067 -412 622 -414 626 -534 746 -71 71 -153 142 -200 173
-290 190 -658 275 -1065 244z"/>
<path d="M3450 13500 c-448 -4 -1329 -11 -1957 -15 l-1143 -8 0 -29 c0 -20
-17 -50 -55 -97 -30 -38 -55 -71 -55 -74 0 -3 254 -206 565 -452 l565 -446
-44 -82 c-256 -479 -1126 -2162 -1151 -2227 -42 -107 -71 -220 -86 -335 -15
-118 -6 -332 21 -457 111 -525 521 -1067 1099 -1449 539 -358 1186 -489 2464
-501 l337 -3 800 1300 c510 831 804 1300 813 1299 9 -1 342 -182 742 -403 400
-221 729 -400 732 -398 2 3 -524 990 -1170 2193 l-1175 2189 -243 1 c-134 0
-611 -3 -1059 -6z"/>
<path d="M15541 12210 c-1129 -703 -2055 -1281 -2057 -1283 -6 -6 2755 -4500
2890 -4706 167 -254 264 -436 359 -676 149 -373 217 -723 217 -1110 0 -300
-35 -539 -125 -849 -25 -86 -45 -158 -45 -161 0 -3 64 -4 143 -3 l142 3 1383
2440 c1134 2002 1387 2454 1407 2520 189 620 44 1343 -440 2195 -45 80 -115
197 -155 260 -40 63 -427 684 -860 1380 -433 695 -791 1265 -796 1267 -5 2
-933 -573 -2063 -1277z"/>
<path d="M12428 8453 c-24 -43 -575 -1016 -1223 -2163 -649 -1146 -1179 -2091
-1179 -2100 0 -19 2364 -3710 2376 -3710 5 0 37 18 72 40 43 27 74 40 99 40
44 0 29 -93 117 754 38 368 71 670 72 672 2 1 566 46 1253 99 876 67 1280 102
1350 116 456 92 808 371 1043 829 144 279 229 563 278 925 25 187 26 561 1
708 -90 533 -334 1085 -862 1949 -77 125 -147 237 -156 249 l-16 22 -1522 -13
c-837 -7 -1524 -10 -1528 -7 -3 4 -32 378 -64 833 -32 454 -60 828 -62 831 -3
2 -25 -31 -49 -74z"/>
<path d="M574 7999 c-10 -12 -46 -44 -79 -72 -33 -27 -64 -56 -68 -64 -6 -9 3
-28 26 -56 18 -23 614 -1117 1323 -2432 l1289 -2390 105 -109 c414 -430 1030
-666 1890 -726 88 -6 815 -10 1863 -10 l1717 0 0 2434 0 2434 -562 6 c-957 10
-4315 28 -4858 25 -355 -2 -549 1 -625 10 -638 70 -1175 285 -1637 653 -124
99 -265 233 -284 271 -8 15 -19 25 -23 22 -5 -2 -14 2 -21 10 -17 21 -34 19
-56 -6z"/>
</g>
</svg>
